# xmcd
#
# Track frame offsets: 
#        150
#        28200
#        58250
#        94315
#        129367
#        152745
#        177692
#        201500
#        227120
#        253255
#        294957
#        317630
#
# Disc length: 4564 seconds
#
# Revision: 2
# Processed by: cddbd v1.5.2PL0 Copyright (c) Steve Scherf et al.
# Submitted via: ExactAudioCopy v1.0b6
#
DISCID=b711d20c
DTITLE=Various Artist - Nervous Records - The Compilation
DYEAR=1992
DGENRE=House
TTITLE0=The D.A.T. Project - My Love (Slammin' Mix)
TTITLE1=Worlds Apart - I Woah! (Raved Mix)
TTITLE2=Anilom - The Anthem (Devil's Nest Mix)
TTITLE3=P.J. - Can Ya Tell Me (P.J. Mix)
TTITLE4=Club Kids - During Peak Hour (Peak Mix)
TTITLE5=The Latin Kings - I Want To Know (The Rig Mix)
TTITLE6=Groove Asylum - Tipsy (Club Mix)
TTITLE7=Trinidad - Philly The Blunt (Club Mix)
TTITLE8=Jazzie Joint - Give A Little Love (Extended Mix)
TTITLE9=The Late Boyz - Can't Stop Dancing (Original Mix)
TTITLE10=Goodfellas - Somebody (House Mix)
TTITLE11=Jazzie Joint - Boom It's The Joint (Reck Mix)
EXTD=
EXTT0=
EXTT1=
EXTT2=
EXTT3=
EXTT4=
EXTT5=
EXTT6=
EXTT7=
EXTT8=
EXTT9=
EXTT10=
EXTT11=
PLAYORDER=
